<?xml version="1.0" encoding="UTF-8" standalone="no"?>
<svg
   xmlns:dc="http://purl.org/dc/elements/1.1/"
   xmlns:cc="http://creativecommons.org/ns#"
   xmlns:rdf="http://www.w3.org/1999/02/22-rdf-syntax-ns#"
   xmlns:svg="http://www.w3.org/2000/svg"
   xmlns="http://www.w3.org/2000/svg"
   viewBox="0 0 1016.4133 773.84003"
   height="773.84003"
   width="1016.4133"
   xml:space="preserve"
   id="svg2"
   version="1.1"><metadata
     id="metadata8"><rdf:RDF><cc:Work
         rdf:about=""><dc:format>image/svg+xml</dc:format><dc:type
           rdf:resource="http://purl.org/dc/dcmitype/StillImage" /></cc:Work></rdf:RDF></metadata><defs
     id="defs6" /><g
     transform="matrix(1.3333333,0,0,-1.3333333,0,773.84)"
     id="g10"><g
       transform="scale(0.1)"
       id="g12"><path
         id="path14"
         style="fill:#442666;fill-opacity:1;fill-rule:nonzero;stroke:none"
         d="M 0,703.109 V 1151.69 H 103.613 V 703.109 H 0" /><path
         id="path16"
         style="fill:#442666;fill-opacity:1;fill-rule:nonzero;stroke:none"
         d="M 504.789,794.09 V 703.109 H 189.531 v 448.581 h 309.574 v -90.98 H 293.145 V 973.52 H 470.043 V 889.488 H 293.145 V 794.09 h 211.644" /><path
         id="path18"
         style="fill:#442666;fill-opacity:1;fill-rule:nonzero;stroke:none"
         d="M 883.23,794.09 V 703.109 H 567.973 v 448.581 h 309.578 v -90.98 H 671.586 V 973.52 H 848.484 V 889.488 H 671.586 V 794.09 H 883.23" /><path
         id="path20"
         style="fill:#442666;fill-opacity:1;fill-rule:nonzero;stroke:none"
         d="M 1261.67,794.09 V 703.109 H 946.41 v 448.581 h 309.58 v -90.98 h -205.97 v -87.19 h 176.9 v -84.032 h -176.9 V 794.09 h 211.65" /><path
         id="path22"
         style="fill:#442666;fill-opacity:1;fill-rule:nonzero;stroke:none"
         d="m 1737.4,838.941 c 0,13.911 -4.01,25.7 -12,35.379 -8.01,9.692 -18.12,14.539 -30.33,14.539 h -119.41 v -97.918 h 114.99 c 13.47,0 24.64,4.418 33.48,13.258 8.85,8.852 13.27,20.43 13.27,34.742 z m -161.74,224.289 v -92.871 h 101.72 c 11.37,0 21.48,3.789 30.33,11.379 8.84,7.571 13.26,19.362 13.26,35.382 0,14.73 -3.89,26.1 -11.68,34.11 -7.8,8 -17.17,12 -28.12,12 z m 267.25,-245.128 c 0,-19.383 -4.01,-36.231 -12.01,-50.543 -8,-14.329 -18.95,-26.219 -32.85,-35.7 -13.9,-9.48 -30.12,-16.648 -48.65,-21.48 -18.54,-4.84 -38.12,-7.27 -58.75,-7.27 h -218.6 v 448.581 h 249.56 c 15.57,0 29.69,-3.38 42.33,-10.12 12.63,-6.74 23.37,-15.48 32.22,-26.21 8.84,-10.74 15.68,-22.97 20.53,-36.65 4.84,-13.69 7.27,-27.7 7.27,-42.01 0,-21.49 -5.38,-41.7 -16.11,-60.661 -10.75,-18.949 -26.86,-33.269 -48.34,-42.957 25.69,-7.57 46.01,-21.062 60.97,-40.434 14.94,-19.378 22.43,-44.218 22.43,-74.546" /><path
         id="path24"
         style="fill:#442666;fill-opacity:1;fill-rule:nonzero;stroke:none"
         d="m 2096.88,791.559 c 17.7,0 32.64,3.683 44.86,11.07 12.21,7.359 22.11,17.141 29.7,29.371 7.57,12.211 12.94,26.219 16.1,42.012 3.16,15.789 4.75,31.91 4.75,48.328 v 229.35 H 2295.9 V 922.34 c 0,-31.168 -3.9,-60.231 -11.69,-87.192 -7.8,-26.949 -19.81,-50.527 -36.01,-70.757 -16.22,-20.211 -36.86,-36.11 -61.92,-47.692 -25.06,-11.59 -54.86,-17.379 -89.4,-17.379 -35.8,0 -66.33,6.11 -91.61,18.321 -25.27,12.211 -45.8,28.531 -61.6,48.968 -15.79,20.422 -27.38,44.11 -34.74,71.071 -7.38,26.961 -11.06,55.179 -11.06,84.66 v 229.35 h 103.61 V 922.34 c 0,-17.27 1.68,-33.699 5.06,-49.281 3.36,-15.579 8.84,-29.477 16.42,-41.688 7.59,-12.223 17.38,-21.91 29.38,-29.07 12.01,-7.172 26.85,-10.742 44.54,-10.742" /><path
         id="path26"
         style="fill:#442666;fill-opacity:1;fill-rule:nonzero;stroke:none"
         d="m 2479.75,938.141 h 84.65 c 12.22,0 22.75,5.257 31.59,15.789 8.85,10.531 13.27,25.91 13.27,46.13 0,10.51 -1.37,19.58 -4.1,27.16 -2.75,7.58 -6.43,13.9 -11.06,18.96 -4.64,5.05 -9.91,8.73 -15.79,11.05 -5.91,2.31 -11.8,3.48 -17.69,3.48 h -80.87 z M 2376.13,703.109 v 448.581 h 191.43 c 21.48,0 41.17,-4.43 59.08,-13.27 17.89,-8.85 33.26,-20.43 46.11,-34.75 12.85,-14.33 22.96,-30.55 30.33,-48.65 7.36,-18.12 11.06,-36.44 11.06,-54.96 0,-19.81 -3.48,-38.759 -10.42,-56.869 -6.96,-18.113 -16.65,-34.332 -29.07,-48.64 -12.43,-14.332 -27.48,-25.699 -45.17,-34.121 -17.69,-8.43 -37.28,-12.641 -58.76,-12.641 h -90.97 v -144.68 h -103.62" /><path
         id="path28"
         style="fill:#442666;fill-opacity:1;fill-rule:nonzero;stroke:none"
         d="m 3169.01,1020.27 c -1.26,1.68 -5.68,4.84 -13.26,9.47 -7.59,4.64 -17.06,9.49 -28.44,14.54 -11.37,5.05 -23.79,9.48 -37.27,13.27 -13.49,3.79 -26.96,5.68 -40.44,5.68 -37.06,0 -55.59,-12.42 -55.59,-37.27 0,-7.58 1.99,-13.9 6,-18.96 4,-5.05 9.89,-9.578 17.69,-13.578 7.79,-4.012 17.58,-7.692 29.38,-11.063 11.78,-3.367 25.48,-7.168 41.06,-11.371 21.48,-5.898 40.85,-12.316 58.13,-19.258 17.27,-6.96 31.9,-15.601 43.91,-25.91 12,-10.32 21.26,-22.851 27.8,-37.59 6.52,-14.761 9.79,-32.441 9.79,-53.082 0,-25.269 -4.74,-46.648 -14.22,-64.117 -9.47,-17.492 -22.01,-31.59 -37.59,-42.332 -15.58,-10.738 -33.48,-18.539 -53.7,-23.379 -20.21,-4.832 -41.06,-7.269 -62.55,-7.269 -16.42,0 -33.27,1.269 -50.54,3.801 -17.28,2.519 -34.12,6.199 -50.54,11.058 -16.43,4.832 -32.33,10.621 -47.7,17.371 -15.38,6.731 -29.6,14.528 -42.65,23.379 l 45.49,90.34 c 1.68,-2.109 7.16,-6.109 16.43,-12 9.26,-5.91 20.74,-11.801 34.43,-17.699 13.68,-5.891 28.95,-11.16 45.8,-15.789 16.85,-4.633 33.9,-6.953 51.18,-6.953 36.64,0 54.96,11.16 54.96,33.492 0,8.41 -2.74,15.371 -8.21,20.847 -5.48,5.473 -13.06,10.43 -22.74,14.84 -9.7,4.422 -21.17,8.543 -34.43,12.321 -13.27,3.793 -27.7,8 -43.28,12.64 -20.64,6.321 -38.54,13.16 -53.71,20.539 -15.16,7.364 -27.7,15.891 -37.59,25.582 -9.9,9.68 -17.27,20.852 -22.11,33.489 -4.85,12.632 -7.26,27.371 -7.26,44.221 0,23.58 4.42,44.43 13.26,62.55 8.85,18.1 20.85,33.38 36.01,45.8 15.17,12.42 32.75,21.8 52.76,28.11 20,6.32 41.16,9.49 63.49,9.49 15.58,0 30.96,-1.49 46.13,-4.43 15.16,-2.95 29.69,-6.74 43.59,-11.37 13.9,-4.64 26.85,-9.9 38.85,-15.8 12,-5.89 23.06,-11.79 33.17,-17.68 l -45.49,-85.93" /><path
         id="path30"
         style="fill:#442666;fill-opacity:1;fill-rule:nonzero;stroke:none"
         d="m 3491.22,720.801 c -13.9,-5.903 -29.8,-11.371 -47.7,-16.43 -17.9,-5.051 -35.91,-7.57 -54.02,-7.57 -12.63,0 -24.54,1.578 -35.69,4.73 -11.17,3.168 -20.96,8.207 -29.38,15.168 -8.43,6.949 -15.06,16.11 -19.9,27.481 -4.85,11.371 -7.27,25.058 -7.27,41.062 v 173.117 h -42.33 v 76.441 h 42.33 v 105.51 h 101.09 V 1034.8 h 67.6 v -76.441 h -67.6 V 820 c 0,-10.961 2.73,-18.859 8.21,-23.691 5.47,-4.86 12.42,-7.27 20.85,-7.27 7.58,0 15.37,1.262 23.38,3.789 7.99,2.531 14.94,5.262 20.85,8.211 l 19.58,-80.238" /><path
         id="path32"
         style="fill:#442666;fill-opacity:1;fill-rule:nonzero;stroke:none"
         d="m 3630.84,696.801 c -34.12,0 -59.92,10.629 -77.39,31.898 -17.48,21.27 -26.22,52.539 -26.22,93.821 v 212.28 h 101.09 V 844.641 c 0,-20.231 3.99,-35.711 12,-46.442 8,-10.738 19.37,-16.109 34.12,-16.109 13.47,0 26.53,3.57 39.17,10.738 12.64,7.16 23.79,19.582 33.48,37.281 V 1034.8 h 101.09 V 816.832 c 0,-10.102 1.59,-17.16 4.73,-21.16 3.16,-4.012 8.75,-6.422 16.76,-7.262 v -85.301 c -9.71,-2.097 -17.91,-3.468 -24.65,-4.109 -6.74,-0.621 -12.85,-0.949 -18.32,-0.949 -36.23,0 -56.87,14.121 -61.92,42.34 l -1.89,20.211 c -15.17,-21.903 -34.02,-38.012 -56.55,-48.332 -22.54,-10.309 -47.7,-15.469 -75.5,-15.469" /><path
         id="path34"
         style="fill:#442666;fill-opacity:1;fill-rule:nonzero;stroke:none"
         d="m 4091.42,782.09 c 13.89,0 27.26,4.101 40.11,12.308 12.85,8.231 22.64,19.481 29.38,33.813 v 69.488 c -6.32,16.852 -16.53,30.653 -30.65,41.391 -14.11,10.73 -28.74,16.101 -43.9,16.101 -10.96,0 -20.96,-2.421 -30.01,-7.261 -9.06,-4.848 -16.97,-11.27 -23.69,-19.27 -6.74,-8.012 -11.91,-17.281 -15.48,-27.789 -3.59,-10.543 -5.37,-21.699 -5.37,-33.492 0,-12.231 1.99,-23.59 6,-34.117 4,-10.532 9.48,-19.582 16.43,-27.172 6.94,-7.578 15.37,-13.481 25.27,-17.68 9.88,-4.219 20.53,-6.32 31.91,-6.32 z m -27.17,-85.289 c -22.75,0 -43.7,4.32 -62.86,12.937 -19.17,8.641 -35.71,20.75 -49.6,36.332 -13.9,15.578 -24.75,33.801 -32.54,54.649 -7.79,20.851 -11.69,43.691 -11.69,68.562 0,24 3.57,46.528 10.74,67.59 7.16,21.059 17.27,39.27 30.33,54.649 13.05,15.37 28.53,27.49 46.44,36.33 17.89,8.85 37.59,13.27 59.07,13.27 23.15,0 44.11,-5.48 62.86,-16.42 18.73,-10.96 33.17,-25.7 43.27,-44.231 v 183.851 h 101.1 V 816.832 c 0,-10.102 1.57,-17.16 4.73,-21.16 3.16,-4.012 8.74,-6.422 16.74,-7.262 v -85.301 c -9.27,-2.097 -17.27,-3.468 -24,-4.109 -6.74,-0.621 -13.06,-0.949 -18.96,-0.949 -17.68,0 -32.01,3.711 -42.96,11.07 -10.95,7.359 -17.27,18 -18.95,31.899 l -1.9,17.05 c -11.79,-20.629 -27.7,-36 -47.7,-46.109 -20.01,-10.109 -41.38,-15.16 -64.12,-15.16" /><path
         id="path36"
         style="fill:#442666;fill-opacity:1;fill-rule:nonzero;stroke:none"
         d="m 4568.42,900.23 c -2.11,21.059 -9.7,37.692 -22.75,49.911 -13.05,12.211 -29.27,18.32 -48.65,18.32 -19.79,0 -36.11,-6.223 -48.96,-18.641 -12.85,-12.422 -20.33,-28.949 -22.43,-49.59 z m -70.13,-203.429 c -27.8,0 -52.75,4.527 -74.87,13.578 -22.11,9.051 -40.86,21.383 -56.23,36.961 -15.37,15.582 -27.06,33.59 -35.06,54.019 -8.01,20.43 -12,41.789 -12,64.129 0,24 3.99,46.641 12,67.91 8,21.274 19.58,39.903 34.75,55.911 15.16,16.011 33.79,28.641 55.91,37.911 22.11,9.26 47.28,13.9 75.5,13.9 28.21,0 53.27,-4.64 75.18,-13.9 21.9,-9.27 40.44,-21.79 55.6,-37.591 15.16,-15.789 26.63,-34.02 34.44,-54.649 7.78,-20.648 11.68,-42.332 11.68,-65.07 0,-5.91 -0.22,-11.691 -0.63,-17.379 -0.43,-5.691 -1.05,-10.64 -1.89,-14.851 h -245.14 c 1.68,-22.321 9.79,-39.27 24.33,-50.86 14.53,-11.59 31.05,-17.371 49.59,-17.371 14.73,0 28.95,3.582 42.64,10.742 13.68,7.161 22.84,16.84 27.48,29.071 l 85.93,-24.02 c -13.06,-26.113 -33.28,-47.383 -60.65,-63.812 -27.39,-16.418 -60.24,-24.629 -98.56,-24.629" /><path
         id="path38"
         style="fill:#442666;fill-opacity:1;fill-rule:nonzero;stroke:none"
         d="M 5040.99,703.109 H 4939.9 v 186.379 c 0,21.891 -4.11,37.801 -12.32,47.711 -8.21,9.883 -19.06,14.84 -32.54,14.84 -7.16,0 -14.32,-1.488 -21.48,-4.418 -7.16,-2.949 -14.12,-7.07 -20.85,-12.32 -6.74,-5.27 -12.74,-11.481 -18,-18.641 -5.28,-7.172 -9.38,-14.949 -12.33,-23.379 V 703.109 H 4721.3 V 1034.8 h 90.98 v -55.589 c 12.21,19.789 29.48,35.059 51.8,45.799 22.33,10.74 48.02,16.11 77.08,16.11 21.49,0 38.75,-3.9 51.81,-11.69 13.06,-7.79 23.16,-17.91 30.33,-30.321 7.15,-12.429 11.9,-26.019 14.21,-40.75 2.31,-14.75 3.48,-29.058 3.48,-42.961 V 703.109" /><path
         id="path40"
         style="fill:#442666;fill-opacity:1;fill-rule:nonzero;stroke:none"
         d="m 5319.61,720.801 c -13.91,-5.903 -29.81,-11.371 -47.71,-16.43 -17.91,-5.051 -35.9,-7.57 -54.01,-7.57 -12.64,0 -24.54,1.578 -35.7,4.73 -11.16,3.168 -20.96,8.207 -29.38,15.168 -8.43,6.949 -15.07,16.11 -19.9,27.481 -4.84,11.371 -7.27,25.058 -7.27,41.062 v 173.117 h -42.32 v 76.441 h 42.32 v 105.51 h 101.09 V 1034.8 h 67.61 v -76.441 h -67.61 V 820 c 0,-10.961 2.73,-18.859 8.21,-23.691 5.47,-4.86 12.42,-7.27 20.85,-7.27 7.59,0 15.37,1.262 23.38,3.789 8,2.531 14.95,5.262 20.85,8.211 l 19.59,-80.238" /><path
         id="path42"
         style="fill:#442666;fill-opacity:1;fill-rule:nonzero;stroke:none"
         d="m 5779.54,838.941 c 0,13.911 -4,25.7 -12,35.379 -8.01,9.692 -18.12,14.539 -30.32,14.539 H 5617.8 v -97.918 h 114.99 c 13.48,0 24.64,4.418 33.49,13.258 8.84,8.852 13.26,20.43 13.26,34.742 z M 5617.8,1063.23 v -92.871 h 101.72 c 11.38,0 21.49,3.789 30.33,11.379 8.84,7.571 13.27,19.362 13.27,35.382 0,14.73 -3.9,26.1 -11.69,34.11 -7.8,8 -17.17,12 -28.12,12 z m 267.25,-245.128 c 0,-19.383 -4.01,-36.231 -12,-50.543 -8.01,-14.329 -18.96,-26.219 -32.85,-35.7 -13.9,-9.48 -30.12,-16.648 -48.66,-21.48 -18.53,-4.84 -38.11,-7.27 -58.75,-7.27 h -218.6 v 448.581 h 249.56 c 15.58,0 29.7,-3.38 42.32,-10.12 12.64,-6.74 23.38,-15.48 32.23,-26.21 8.85,-10.74 15.68,-22.97 20.54,-36.65 4.83,-13.69 7.26,-27.7 7.26,-42.01 0,-21.49 -5.37,-41.7 -16.11,-60.661 -10.74,-18.949 -26.86,-33.269 -48.33,-42.957 25.68,-7.57 46.01,-21.062 60.97,-40.434 14.94,-19.378 22.42,-44.218 22.42,-74.546" /><path
         id="path44"
         style="fill:#442666;fill-opacity:1;fill-rule:nonzero;stroke:none"
         d="m 6148.5,948.25 c -24.44,-0.43 -46.55,-4.422 -66.34,-12 -19.81,-7.59 -34.12,-18.961 -42.97,-34.121 V 703.109 H 5938.11 V 1034.8 h 92.87 v -66.972 c 11.37,22.32 26,39.802 43.91,52.442 17.89,12.64 36.96,19.16 57.18,19.59 4.63,0 7.99,0 10.11,0 2.1,0 4.2,-0.22 6.32,-0.63 v -90.98" /><path
         id="path46"
         style="fill:#442666;fill-opacity:1;fill-rule:nonzero;stroke:none"
         d="m 6310.24,769.449 c 10.95,0 21.58,1.903 31.91,5.68 10.31,3.793 18.84,8.851 25.58,15.172 9.68,7.578 14.54,15.578 14.54,24 v 31.597 c -8.85,3.372 -18.44,6 -28.75,7.903 -10.33,1.89 -19.91,2.84 -28.75,2.84 -18.54,0 -33.8,-4.219 -45.81,-12.641 -12,-8.43 -18,-19.371 -18,-32.852 0,-12.226 4.63,-22.226 13.9,-30.007 9.26,-7.801 21.06,-11.692 35.38,-11.692 z m -29.69,-72.648 c -16.43,0 -31.7,2.629 -45.81,7.898 -14.11,5.262 -26.21,12.633 -36.33,22.102 -10.11,9.488 -18.11,20.64 -24.01,33.488 -5.89,12.84 -8.84,26.852 -8.84,42.012 0,16.429 3.47,31.379 10.43,44.871 6.94,13.457 16.73,25.039 29.37,34.738 12.64,9.68 27.58,17.27 44.85,22.75 17.27,5.469 36.44,8.211 57.5,8.211 13.9,0 27.38,-1.16 40.43,-3.48 13.06,-2.321 24.43,-5.789 34.13,-10.422 v 15.16 c 0,38.32 -22.12,57.492 -66.34,57.492 -18.12,0 -35.38,-3.062 -51.81,-9.16 -16.42,-6.102 -33.7,-15.262 -51.81,-27.481 l -29.69,63.18 c 21.89,14.31 44.64,25.05 68.23,32.22 23.58,7.16 48.65,10.74 75.19,10.74 50.11,0 88.86,-11.8 116.25,-35.38 27.37,-23.592 41.06,-58.119 41.06,-103.611 v -85.297 c 0,-10.102 1.58,-17.16 4.74,-21.16 3.16,-4.012 8.74,-6.422 16.74,-7.262 v -85.301 c -8.84,-2.097 -16.85,-3.468 -24.01,-4.109 -7.17,-0.621 -13.69,-0.949 -19.58,-0.949 -18.95,0 -33.28,3.711 -42.97,11.07 -9.69,7.359 -15.79,17.777 -18.32,31.27 l -1.89,15.16 c -14.75,-18.949 -32.33,-33.481 -52.76,-43.59 -20.43,-10.109 -42.01,-15.16 -64.75,-15.16" /><path
         id="path48"
         style="fill:#442666;fill-opacity:1;fill-rule:nonzero;stroke:none"
         d="m 6876.32,703.109 h -101.09 v 186.379 c 0,21.891 -4.11,37.801 -12.32,47.711 -8.21,9.883 -19.06,14.84 -32.54,14.84 -7.16,0 -14.32,-1.488 -21.47,-4.418 -7.17,-2.949 -14.12,-7.07 -20.85,-12.32 -6.75,-5.27 -12.75,-11.481 -18.01,-18.641 -5.27,-7.172 -9.38,-14.949 -12.33,-23.379 V 703.109 H 6556.63 V 1034.8 h 90.98 v -55.589 c 12.21,19.789 29.48,35.059 51.8,45.799 22.33,10.74 48.02,16.11 77.08,16.11 21.49,0 38.75,-3.9 51.81,-11.69 13.06,-7.79 23.16,-17.91 30.33,-30.321 7.15,-12.429 11.9,-26.019 14.21,-40.75 2.32,-14.75 3.48,-29.058 3.48,-42.961 V 703.109" /><path
         id="path50"
         style="fill:#442666;fill-opacity:1;fill-rule:nonzero;stroke:none"
         d="m 6923.71,869.281 c 0,22.739 4,44.539 12,65.391 8,20.848 19.58,39.168 34.75,54.957 15.17,15.801 33.8,28.321 55.92,37.591 22.11,9.26 47.27,13.9 75.5,13.9 38.32,0 70.53,-8.11 96.66,-24.32 26.11,-16.23 45.69,-37.39 58.75,-63.499 l -98.56,-29.692 c -13.06,21.063 -32.22,31.582 -57.49,31.582 -21.06,0 -38.64,-7.793 -52.75,-23.371 -14.12,-15.582 -21.17,-36.429 -21.17,-62.539 0,-13.07 1.9,-24.972 5.69,-35.699 3.79,-10.742 9.05,-19.902 15.79,-27.492 6.74,-7.578 14.63,-13.481 23.69,-17.68 9.05,-4.219 18.64,-6.32 28.75,-6.32 12.64,0 24.22,3.039 34.75,9.16 10.52,6.102 18.32,13.992 23.38,23.691 l 98.55,-30.32 c -12.22,-25.711 -31.69,-46.762 -58.44,-63.191 -26.75,-16.418 -59.28,-24.629 -97.6,-24.629 -27.81,0 -52.76,4.73 -74.88,14.211 -22.11,9.476 -40.86,22.109 -56.23,37.898 -15.37,15.801 -27.06,34.129 -35.06,54.969 -8,20.851 -12,42.652 -12,65.402" /><path
         id="path52"
         style="fill:#442666;fill-opacity:1;fill-rule:nonzero;stroke:none"
         d="M 7623.09,703.109 H 7522 v 186.379 c 0,21.481 -4.22,37.282 -12.63,47.383 -8.43,10.109 -20.01,15.168 -34.75,15.168 -5.91,0 -12.33,-1.379 -19.28,-4.109 -6.94,-2.75 -13.69,-6.739 -20.21,-12 -6.54,-5.282 -12.54,-11.481 -18.01,-18.641 -5.48,-7.16 -9.69,-15.16 -12.64,-24.008 V 703.109 H 7303.4 v 461.211 h 101.08 V 979.211 c 12.22,19.789 28.33,35.059 48.34,45.799 20,10.74 42.01,16.11 66.02,16.11 22.32,0 40.33,-3.9 54.02,-11.69 13.68,-7.79 24.21,-17.68 31.59,-29.7 7.37,-12 12.32,-25.48 14.85,-40.429 2.53,-14.961 3.79,-29.59 3.79,-43.903 V 703.109" /><path
         id="path54"
         style="fill:#442666;fill-opacity:1;fill-rule:nonzero;stroke:none"
         d="m 1655.72,537.102 h 60.95 l 50.03,-138.59 50.61,138.59 h 60.38 l -69.58,-181.723 60.96,-150.09 127.08,333.543 h 70.73 L 1898.39,130.531 h -55.2 L 1767.28,313.41 1690.8,130.531 h -55.21 L 1467.1,538.832 h 70.16 l 127.66,-333.543 60.95,150.09 -70.15,181.723" /><path
         id="path56"
         style="fill:#442666;fill-opacity:1;fill-rule:nonzero;stroke:none"
         d="m 2115.19,130.531 v 408.301 h 64.4 V 130.531 h -64.4" /><path
         id="path58"
         style="fill:#442666;fill-opacity:1;fill-rule:nonzero;stroke:none"
         d="M 2551.65,187.469 V 130.531 H 2271.6 v 408.301 h 274.87 V 481.891 H 2336 V 365.73 h 182.3 V 312.25 H 2336 V 187.469 h 215.65" /><path
         id="path60"
         style="fill:#442666;fill-opacity:1;fill-rule:nonzero;stroke:none"
         d="m 2956.49,289.262 -65.55,175.386 -67.86,-175.386 z m -93.73,249.57 h 56.36 l 161.01,-408.301 h -67.85 l -43.13,110.989 h -157.57 l -42.56,-110.989 h -68.43 l 162.17,408.301" /><path
         id="path62"
         style="fill:#442666;fill-opacity:1;fill-rule:nonzero;stroke:none"
         d="m 3277.37,423.82 c 0,2.672 0.09,6.219 0.29,10.629 0.19,4.41 0.58,8.922 1.15,13.52 0.57,4.601 1.34,9.101 2.3,13.511 0.95,4.411 2.02,7.77 3.16,10.059 -5.75,3.461 -12.46,5.84 -20.12,7.191 -7.68,1.352 -14.58,2.02 -20.71,2.02 -8.44,0 -15.62,-1.449 -21.56,-4.32 -5.95,-2.879 -10.84,-6.711 -14.66,-11.5 -3.84,-4.801 -6.62,-10.258 -8.34,-16.391 -1.73,-6.129 -2.59,-12.457 -2.59,-18.969 v -5.75 z m -144.34,-48.879 h -40.25 v 48.879 h 40.25 v 4.602 c 0,13.789 2.11,27.027 6.33,39.668 4.21,12.66 10.54,23.961 18.97,33.93 8.43,9.968 18.78,17.921 31.06,23.871 12.27,5.929 26.25,8.91 41.98,8.91 13.42,0 26.06,-1.531 37.95,-4.602 11.88,-3.07 22.8,-6.898 32.78,-11.5 9.97,11.11 22.43,20.133 37.38,27.031 14.95,6.891 32.78,10.352 53.48,10.352 20.32,0 39.19,-3.363 56.64,-10.07 17.44,-6.711 33.07,-14.473 46.87,-23.293 l -26.46,-47.149 c -8.43,7.282 -19.07,13.508 -31.91,18.692 -12.85,5.168 -25.79,7.758 -38.81,7.758 -10.35,0 -19.27,-1.821 -26.75,-5.461 -7.47,-3.649 -13.61,-8.528 -18.4,-14.668 -4.79,-6.129 -8.25,-13.032 -10.35,-20.7 -2.11,-7.671 -3.16,-15.519 -3.16,-23.57 V 423.82 h 157.56 V 130.531 h -63.82 v 244.41 h -93.74 v -244.41 h -63.26 v 244.41 h -81.08 v -244.41 h -63.26 v 244.41" /><path
         id="path64"
         style="fill:#442666;fill-opacity:1;fill-rule:nonzero;stroke:none"
         d="m 3843.22,130.531 h -63.25 v 168.5 c 0,28.36 -4.52,48.969 -13.52,61.821 -9.01,12.839 -22.33,19.269 -39.97,19.269 -9.19,0 -18.39,-1.73 -27.6,-5.18 -9.2,-3.461 -17.83,-8.339 -25.88,-14.671 -8.04,-6.329 -15.23,-13.801 -21.56,-22.43 -6.32,-8.621 -11.22,-18.121 -14.66,-28.461 V 130.531 h -63.26 v 300.758 h 57.51 V 370.91 c 11.5,20.32 28.17,36.309 50.02,48.012 21.86,11.687 46.01,17.539 72.47,17.539 18.01,0 32.77,-3.262 44.27,-9.77 11.51,-6.531 20.61,-15.429 27.32,-26.742 6.7,-11.308 11.4,-24.347 14.09,-39.097 2.68,-14.77 4.02,-30.391 4.02,-46.872 V 130.531" /><path
         id="path66"
         style="fill:#442666;fill-opacity:1;fill-rule:nonzero;stroke:none"
         d="m 3916.82,130.531 v 300.758 h 63.26 V 130.531 Z m 0,350.219 v 69.578 h 63.26 V 480.75 h -63.26" /><path
         id="path68"
         style="fill:#442666;fill-opacity:1;fill-rule:nonzero;stroke:none"
         d="m 4223.32,146.059 c -8.05,-3.84 -19.17,-8.149 -33.35,-12.938 -14.19,-4.781 -29.33,-7.18 -45.43,-7.18 -9.97,0 -19.36,1.34 -28.17,4.02 -8.83,2.668 -16.59,6.711 -23.29,12.078 -6.72,5.359 -12,12.363 -15.82,20.992 -3.84,8.617 -5.76,19.059 -5.76,31.328 V 382.41 h -39.67 v 48.879 h 39.67 v 98.91 h 63.27 v -98.91 h 65.55 V 382.41 h -65.55 V 214.488 c 0.76,-10.726 4.11,-18.496 10.05,-23.289 5.95,-4.801 13.32,-7.187 22.14,-7.187 8.82,0 17.26,1.527 25.31,4.597 8.05,3.071 13.99,5.563 17.83,7.481 l 13.22,-50.031" /><path
         id="path70"
         style="fill:#442666;fill-opacity:1;fill-rule:nonzero;stroke:none"
         d="m 4277.36,59.8008 c 5.76,-1.1524 11.41,-2.1016 16.98,-2.8711 5.54,-0.7695 10.05,-1.1484 13.5,-1.1484 4.98,0 9.3,1.0507 12.94,3.1601 3.64,2.1094 7.38,5.8477 11.22,11.207 3.83,5.3829 7.77,12.9414 11.79,22.7227 4.02,9.7699 8.71,22.3279 14.08,37.6599 l -123.63,300.758 h 64.98 l 93.16,-244.969 82.81,244.969 h 59.8 L 4398.7,60.9492 c -6.13,-17.25 -16.77,-31.7109 -31.91,-43.4101 C 4351.64,5.85156 4332.19,0 4308.42,0 c -4.6,0 -9.4,0.28125 -14.38,0.859375 -4.99,0.570315 -10.54,1.820315 -16.68,3.742185 V 59.8008" /><path
         id="path72"
         style="fill:#442666;fill-opacity:1;fill-rule:nonzero;stroke:none"
         d="m 4847.83,178.84 c 9.58,0 18.78,1.629 27.6,4.89 8.82,3.25 16.96,7.661 24.44,13.219 7.47,5.563 13.89,11.891 19.27,18.992 5.36,7.09 9.2,14.649 11.49,22.707 v 78.782 c -3.83,9.582 -8.81,18.3 -14.95,26.16 -6.13,7.851 -13.13,14.672 -20.98,20.422 -7.86,5.75 -16.2,10.258 -25.02,13.519 -8.82,3.25 -17.64,4.879 -26.45,4.879 -13.81,0 -26.17,-2.969 -37.09,-8.918 -10.93,-5.941 -20.23,-13.793 -27.89,-23.574 -7.67,-9.777 -13.61,-20.797 -17.83,-33.066 -4.22,-12.274 -6.33,-24.922 -6.33,-37.954 0,-13.796 2.39,-26.738 7.19,-38.808 4.79,-12.078 11.41,-22.629 19.84,-31.641 8.43,-9.008 18.3,-16.199 29.62,-21.558 11.3,-5.371 23.66,-8.051 37.09,-8.051 z m -20.7,-51.18 c -20.32,0 -38.92,4.121 -55.78,12.371 -16.88,8.231 -31.34,19.449 -43.42,33.629 -12.08,14.18 -21.47,30.481 -28.17,48.891 -6.72,18.398 -10.07,37.75 -10.07,58.07 0,21.469 3.44,41.688 10.35,60.68 6.9,18.969 16.48,35.449 28.75,49.449 12.26,13.98 26.93,25.109 43.99,33.352 17.05,8.238 35.95,12.359 56.64,12.359 24.16,0 45.34,-5.75 63.55,-17.242 18.2,-11.508 33.26,-26.457 45.15,-44.86 v 56.93 h 55.78 V 139.16 c 0,-21.851 -4.03,-41.1991 -12.08,-58.078 -8.05,-16.8632 -19.26,-31.1406 -33.65,-42.8437 -14.37,-11.6875 -31.33,-20.6094 -50.88,-26.7383 -19.56,-6.12891 -40.65,-9.21094 -63.26,-9.21094 -33.36,0 -61.06,5.67188 -83.1,16.98044 -22.04,11.3008 -40.54,27.1094 -55.49,47.4414 l 35.65,33.3481 c 11.51,-16.1098 26.36,-28.3676 44.57,-36.809 18.21,-8.4297 37.67,-12.6484 58.37,-12.6484 13.03,0 25.39,1.7304 37.09,5.1797 11.69,3.4492 21.95,8.8203 30.76,16.0976 8.82,7.293 15.82,16.4922 20.99,27.6016 5.18,11.1215 7.76,24.3595 7.76,39.6795 v 46 c -10.73,-18.39 -25.49,-32.578 -44.27,-42.539 -18.79,-9.992 -38.53,-14.961 -59.23,-14.961" /><path
         id="path74"
         style="fill:#442666;fill-opacity:1;fill-rule:nonzero;stroke:none"
         d="m 5238.87,376.66 c -24.54,-0.769 -46.29,-6.43 -65.28,-16.961 -18.97,-10.551 -32.49,-25.59 -40.53,-45.14 V 130.531 h -63.27 v 300.758 h 58.67 v -67.277 c 10.35,20.699 23.86,37.277 40.53,49.738 16.68,12.461 34.6,19.27 53.77,20.422 3.83,0 7,0 9.5,0 2.49,0 4.68,-0.203 6.61,-0.582 v -56.93" /><path
         id="path76"
         style="fill:#442666;fill-opacity:1;fill-rule:nonzero;stroke:none"
         d="m 5315.35,280.051 c 0,-14.571 2.31,-27.992 6.91,-40.262 4.6,-12.269 10.92,-22.91 18.97,-31.91 8.06,-9.008 17.54,-16.098 28.47,-21.277 10.93,-5.18 22.71,-7.762 35.37,-7.762 12.64,0 24.43,2.582 35.36,7.762 10.93,5.179 20.42,12.359 28.47,21.57 8.04,9.199 14.37,19.918 18.97,32.199 4.6,12.258 6.91,25.68 6.91,40.25 0,14.18 -2.31,27.508 -6.91,39.969 -4.6,12.449 -10.93,23.289 -18.97,32.492 -8.05,9.199 -17.54,16.387 -28.47,21.566 -10.93,5.172 -22.72,7.762 -35.36,7.762 -12.28,0 -23.87,-2.691 -34.8,-8.051 -10.92,-5.379 -20.41,-12.648 -28.46,-21.847 -8.05,-9.203 -14.48,-20.043 -19.26,-32.492 -4.81,-12.461 -7.2,-25.79 -7.2,-39.969 z m 89.72,-155.27 c -23.78,0 -45.15,4.231 -64.12,12.66 -18.98,8.43 -35.18,19.739 -48.6,33.93 -13.42,14.168 -23.78,30.758 -31.05,49.738 -7.29,18.981 -10.93,38.809 -10.93,59.512 0,20.711 3.64,40.547 10.93,59.52 7.27,18.98 17.73,35.558 31.34,49.75 13.6,14.168 29.91,25.488 48.88,33.929 18.98,8.422 40.16,12.641 63.55,12.641 23.38,0 44.56,-4.219 63.54,-12.641 18.98,-8.441 35.27,-19.761 48.88,-33.929 13.6,-14.192 24.05,-30.77 31.34,-49.75 7.27,-18.973 10.93,-38.809 10.93,-59.52 0,-20.703 -3.66,-40.531 -10.93,-59.512 -7.29,-18.98 -17.74,-35.57 -31.34,-49.738 -13.61,-14.191 -29.9,-25.5 -48.88,-33.93 -18.98,-8.429 -40.16,-12.66 -63.54,-12.66" /><path
         id="path78"
         style="fill:#442666;fill-opacity:1;fill-rule:nonzero;stroke:none"
         d="m 5708.68,124.781 c -31.43,0 -55.2,10.258 -71.31,30.77 -16.1,20.5 -24.15,51.078 -24.15,91.719 v 184.019 h 63.26 V 259.918 c 0,-54.047 19.16,-81.078 57.5,-81.078 18.02,0 35.08,5.551 51.19,16.68 16.1,11.109 28.55,27.21 37.38,48.312 v 187.457 h 63.25 v -226 c 0,-7.277 1.24,-12.461 3.74,-15.527 2.49,-3.063 6.99,-4.793 13.52,-5.172 v -54.059 c -6.53,-1.152 -11.9,-1.91 -16.11,-2.301 -4.23,-0.371 -8.25,-0.57 -12.08,-0.57 -11.5,0 -21.28,3.16 -29.32,9.488 -8.05,6.321 -12.28,14.473 -12.66,24.442 l -1.14,29.902 c -13.43,-21.851 -30.87,-38.441 -52.34,-49.742 -21.47,-11.301 -45.04,-16.969 -70.73,-16.969" /><path
         id="path80"
         style="fill:#442666;fill-opacity:1;fill-rule:nonzero;stroke:none"
         d="m 6116.41,178.84 c 13.4,0 25.58,2.879 36.51,8.629 10.93,5.75 20.31,13.41 28.17,23 7.87,9.582 13.9,20.5 18.12,32.781 4.22,12.27 6.33,24.91 6.33,37.949 0,13.801 -2.41,26.832 -7.19,39.102 -4.8,12.269 -11.31,23.008 -19.55,32.211 -8.25,9.199 -18.12,16.468 -29.62,21.847 -11.5,5.36 -23.97,8.051 -37.37,8.051 -8.06,0 -16.5,-1.531 -25.31,-4.601 -8.82,-3.079 -17.07,-7.278 -24.72,-12.661 -7.68,-5.367 -14.39,-11.589 -20.13,-18.679 -5.75,-7.098 -9.78,-14.86 -12.08,-23.289 v -78.789 c 3.83,-9.2 8.82,-17.821 14.95,-25.871 6.12,-8.051 12.94,-14.95 20.41,-20.7 7.48,-5.75 15.63,-10.351 24.45,-13.808 8.81,-3.453 17.83,-5.172 27.03,-5.172 z m 20.7,-54.059 c -24.16,0 -45.43,5.75 -63.84,17.258 -18.4,11.492 -32.97,26.441 -43.7,44.852 V 8.03906 h -63.26 V 431.289 h 55.78 V 377.23 c 11.5,18.02 26.36,32.399 44.57,43.141 18.2,10.719 38.82,16.09 61.82,16.09 20.7,0 39.67,-4.219 56.93,-12.641 17.26,-8.441 32.21,-19.761 44.85,-33.929 12.66,-14.192 22.52,-30.68 29.62,-49.461 7.09,-18.789 10.64,-38.528 10.64,-59.231 0,-21.859 -3.26,-42.269 -9.78,-61.238 -6.52,-18.981 -15.72,-35.473 -27.6,-49.449 -11.89,-14.012 -25.97,-25.121 -42.27,-33.364 -16.3,-8.25 -34.21,-12.367 -53.76,-12.367" /><path
         id="path82"
         style="fill:#442666;fill-opacity:1;fill-rule:nonzero;stroke:none"
         d="m 1187.49,1358.52 h -57.41 v 248.03 h 57.41 v -248.03" /><path
         id="path84"
         style="fill:#442666;fill-opacity:1;fill-rule:nonzero;stroke:none"
         d="m 1427.13,1464.66 h -97.27 v -61.85 h 114.65 v -44.29 h -172.4 v 248.03 h 172.73 v -44.29 h -114.98 v -53.32 h 97.27 v -44.28" /><path
         id="path86"
         style="fill:#442666;fill-opacity:1;fill-rule:nonzero;stroke:none"
         d="m 1667.46,1464.66 h -97.27 v -61.85 h 114.64 v -44.29 h -172.39 v 248.03 h 172.73 v -44.29 h -114.98 v -53.32 h 97.27 v -44.28" /><path
         id="path88"
         style="fill:#442666;fill-opacity:1;fill-rule:nonzero;stroke:none"
         d="m 1907.78,1464.66 h -97.27 v -61.85 h 114.65 v -44.29 h -172.4 v 248.03 h 172.73 v -44.29 h -114.98 v -53.32 h 97.27 v -44.28" /><path
         id="path90"
         style="fill:#442666;fill-opacity:1;fill-rule:nonzero;stroke:none"
         d="m 2321.31,1443.87 h 1.02 l 32.54,162.68 h 55.7 l -56.9,-248.03 h -54.17 l -41.73,152.98 h -1.03 l -41.39,-152.98 h -54.17 l -57.07,248.03 h 55.88 l 32.53,-162.68 h 1.02 l 43.78,162.68 h 40.04 l 43.95,-162.68" /><path
         id="path92"
         style="fill:#442666;fill-opacity:1;fill-rule:nonzero;stroke:none"
         d="m 2621.25,1505.19 c 0,17.72 -4.17,32.26 -12.52,43.62 -8.35,11.35 -20.13,17.03 -35.35,17.03 -15.56,0 -27.46,-5.65 -35.69,-16.96 -8.23,-11.29 -12.35,-25.85 -12.35,-43.69 v -44.97 c 0,-17.95 4.18,-32.59 12.52,-43.95 8.35,-11.36 20.3,-17.03 35.86,-17.03 15.1,0 26.8,5.67 35.09,17.03 8.29,11.36 12.44,26 12.44,43.95 z m 57.41,-44.97 c 0,-30.54 -9.69,-55.73 -29.05,-75.54 -19.36,-19.83 -44.66,-29.73 -75.89,-29.73 -31.46,0 -56.95,9.9 -76.48,29.73 -19.54,19.81 -29.31,45 -29.31,75.54 v 44.63 c 0,30.44 9.74,55.6 29.22,75.47 19.48,19.87 44.89,29.81 76.23,29.81 31.12,0 56.44,-9.94 75.98,-29.81 19.53,-19.87 29.3,-45.03 29.3,-75.47 v -44.63" /><path
         id="path94"
         style="fill:#442666;fill-opacity:1;fill-rule:nonzero;stroke:none"
         d="m 2829.55,1606.55 55.53,-173.58 h 1.02 l 56.22,173.58 h 75.98 v -248.03 h -57.75 v 61.5 l 5.45,113.28 -1.02,0.17 -59.8,-174.95 h -38.84 l -59.11,173.42 -1.02,-0.17 5.45,-111.75 v -61.5 h -57.75 v 248.03 h 75.64" /><path
         id="path96"
         style="fill:#442666;fill-opacity:1;fill-rule:nonzero;stroke:none"
         d="m 3254.02,1464.66 h -97.27 v -61.85 h 114.65 v -44.29 H 3099 v 248.03 h 172.73 v -44.29 h -114.98 v -53.32 h 97.27 v -44.28" /><path
         id="path98"
         style="fill:#442666;fill-opacity:1;fill-rule:nonzero;stroke:none"
         d="m 3546.3,1358.52 h -57.41 l -90.8,158.09 -1.02,-0.34 v -157.75 h -57.75 v 248.03 h 57.75 l 90.8,-158.09 1.02,0.35 v 157.74 h 57.41 v -248.03" /><path
         id="path100"
         style="fill:#442666;fill-opacity:1;fill-rule:nonzero;stroke:none"
         d="m 3817.25,1358.52 h -57.41 v 248.03 h 57.41 v -248.03" /><path
         id="path102"
         style="fill:#442666;fill-opacity:1;fill-rule:nonzero;stroke:none"
         d="m 4108.85,1358.52 h -57.41 l -90.8,158.09 -1.02,-0.34 v -157.75 h -57.74 v 248.03 h 57.74 l 90.8,-158.09 1.02,0.35 v 157.74 h 57.41 v -248.03" /><path
         id="path104"
         style="fill:#442666;fill-opacity:1;fill-rule:nonzero;stroke:none"
         d="m 4473.48,1464.66 h -97.27 v -61.85 h 114.65 v -44.29 h -172.39 v 248.03 h 172.73 v -44.29 h -114.99 v -53.32 h 97.27 v -44.28" /><path
         id="path106"
         style="fill:#442666;fill-opacity:1;fill-rule:nonzero;stroke:none"
         d="m 4765.76,1358.52 h -57.41 l -90.79,158.09 -1.03,-0.34 v -157.75 h -57.74 v 248.03 h 57.74 l 90.8,-158.09 1.02,0.35 v 157.74 h 57.41 v -248.03" /><path
         id="path108"
         style="fill:#442666;fill-opacity:1;fill-rule:nonzero;stroke:none"
         d="m 5042.54,1392.76 c -8.41,-9.99 -20.62,-18.8 -36.62,-26.4 -16.02,-7.61 -36.13,-11.41 -60.31,-11.41 -30.66,0 -55.56,9.42 -74.7,28.27 -19.13,18.86 -28.7,43.33 -28.7,73.43 v 51.79 c 0,29.86 9.33,54.27 28.02,73.24 18.68,18.96 42.73,28.45 72.14,28.45 31.92,0 55.82,-7.39 71.72,-22.14 15.9,-14.77 24.92,-34.93 27.08,-60.48 l -0.33,-1.02 h -54 c -1.94,13.06 -6.17,22.88 -12.7,29.47 -6.53,6.59 -16.49,9.88 -29.89,9.88 -13.4,0 -24.19,-5.31 -32.37,-15.93 -8.18,-10.61 -12.26,-24.34 -12.26,-41.14 v -52.12 c 0,-17.27 4.02,-31.15 12.09,-41.65 8.07,-10.51 19.36,-15.76 33.9,-15.76 10.56,0 18.85,0.85 24.87,2.56 6.02,1.69 10.79,3.97 14.31,6.8 v 39.19 h -39.01 v 38.16 h 96.76 v -93.19" /><path
         id="path110"
         style="fill:#442666;fill-opacity:1;fill-rule:nonzero;stroke:none"
         d="m 5180.82,1358.52 h -57.4 v 248.03 h 57.4 v -248.03" /><path
         id="path112"
         style="fill:#442666;fill-opacity:1;fill-rule:nonzero;stroke:none"
         d="m 5472.42,1358.52 h -57.41 l -90.79,158.09 -1.03,-0.34 v -157.75 h -57.74 v 248.03 h 57.74 l 90.8,-158.09 1.02,0.35 v 157.74 h 57.41 v -248.03" /><path
         id="path114"
         style="fill:#442666;fill-opacity:1;fill-rule:nonzero;stroke:none"
         d="m 5708.31,1464.66 h -97.27 v -61.85 h 114.65 v -44.29 H 5553.3 v 248.03 h 172.74 v -44.29 h -115 v -53.32 h 97.27 v -44.28" /><path
         id="path116"
         style="fill:#442666;fill-opacity:1;fill-rule:nonzero;stroke:none"
         d="m 5948.63,1464.66 h -97.26 v -61.85 h 114.65 v -44.29 h -172.4 v 248.03 h 172.74 v -44.29 h -114.99 v -53.32 h 97.26 v -44.28" /><path
         id="path118"
         style="fill:#442666;fill-opacity:1;fill-rule:nonzero;stroke:none"
         d="m 6091.69,1497.87 h 37.99 c 11.58,0 20.44,2.64 26.57,7.92 6.13,5.28 9.2,12.86 9.2,22.74 0,10.11 -3.15,18.26 -9.45,24.45 -6.3,6.19 -15.19,9.28 -26.66,9.28 h -37.65 z m 0,-44.29 v -95.06 h -57.74 v 248.03 h 95.39 c 28.73,0 51.5,-6.64 68.31,-19.93 16.8,-13.28 25.21,-31.46 25.21,-54.51 0,-12.83 -3.38,-23.85 -10.14,-33.05 -6.75,-9.2 -16.72,-16.69 -29.89,-22.48 15.22,-4.33 26.14,-11.5 32.79,-21.55 6.65,-10.05 9.97,-22.57 9.97,-37.56 v -15.67 c 0,-6.48 0.96,-13.86 2.89,-22.15 1.93,-8.29 5.28,-14.2 10.06,-17.72 v -3.41 h -59.29 c -4.54,3.52 -7.52,9.77 -8.95,18.74 -1.41,8.97 -2.13,17.26 -2.13,24.88 v 14.99 c 0,11.8 -3.12,20.84 -9.36,27.08 -6.25,6.25 -15.39,9.37 -27.43,9.37 h -39.69" /><path
         id="path120"
         style="fill:#442666;fill-opacity:1;fill-rule:nonzero;stroke:none"
         d="m 6367.44,1358.52 h -57.4 v 248.03 h 57.4 v -248.03" /><path
         id="path122"
         style="fill:#442666;fill-opacity:1;fill-rule:nonzero;stroke:none"
         d="m 6659.04,1358.52 h -57.41 l -90.79,158.09 -1.03,-0.34 v -157.75 h -57.74 v 248.03 h 57.74 l 90.81,-158.09 1.01,0.35 v 157.74 h 57.41 v -248.03" /><path
         id="path124"
         style="fill:#442666;fill-opacity:1;fill-rule:nonzero;stroke:none"
         d="m 6935.82,1392.76 c -8.41,-9.99 -20.61,-18.8 -36.62,-26.4 -16.02,-7.61 -36.12,-11.41 -60.31,-11.41 -30.66,0 -55.56,9.42 -74.7,28.27 -19.13,18.86 -28.7,43.33 -28.7,73.43 v 51.79 c 0,29.86 9.33,54.27 28.03,73.24 18.67,18.96 42.72,28.45 72.13,28.45 31.92,0 55.82,-7.39 71.72,-22.14 15.9,-14.77 24.92,-34.93 27.08,-60.48 l -0.33,-1.02 h -54 c -1.94,13.06 -6.16,22.88 -12.7,29.47 -6.53,6.59 -16.49,9.88 -29.89,9.88 -13.4,0 -24.19,-5.31 -32.36,-15.93 -8.19,-10.61 -12.27,-24.34 -12.27,-41.14 v -52.12 c 0,-17.27 4.02,-31.15 12.09,-41.65 8.07,-10.51 19.37,-15.76 33.9,-15.76 10.56,0 18.85,0.85 24.87,2.56 6.03,1.69 10.79,3.97 14.32,6.8 v 39.19 h -39.02 v 38.16 h 96.76 v -93.19" /><path
         id="path126"
         style="fill:#442666;fill-opacity:1;fill-rule:nonzero;stroke:none"
         d="M 4897.05,3374.03 H 5907.2 v 819.04 H 4897.05 v 133.12 c -1506.68,-540.89 189.19,-779.75 -74.79,-1659.67 -134.75,-449.17 -444.58,-729.66 -720.4,-897.81 h 124.07 2702.36 v 819.05 H 4897.05 v 786.27" /><path
         id="path128"
         style="fill:#442666;fill-opacity:1;fill-rule:nonzero;stroke:none"
         d="m 4278.97,4596.73 c -167.72,0 -286.74,129.84 -286.74,292.15 0,167.71 124.44,297.57 297.56,297.57 178.54,0 292.16,-129.86 292.16,-297.57 5.41,-162.31 -113.62,-292.15 -302.98,-292.15 z m 509.37,1207.11 H 3963.83 L 3587.08,3150.16 2669.74,4979.34 1752.41,3150.16 1375.66,5803.84 H 551.152 L 1113.57,1768.71 h 873.64 l 682.53,1370.52 682.54,-1370.52 h 448.44 c 1175.43,1297.02 -68.94,1448.09 28.27,2134.6 84,593.27 808.81,519.83 1068.06,473.91 v 602.13 h 2031.24 v 819.04 l -2139.95,5.45" /></g></g></svg>